# xmcd
#
# Track frame offsets:
#	150
#	12258
#	34573
#	52578
#	66445
#	81773
#	104460
#	117553
#	137143
#	158152
#
# Disc length: 2372 seconds
#
# Revision: 0
# Processed by: cddbd v1.5.2PL0 Copyright (c) Steve Scherf et al.
# Submitted via: EasyCDDAExtractor 11.1.0.1
#
DISCID=7d09420a
DTITLE=Diana Wolfe - Rutherglen Road
DYEAR=2010
DGENRE=Blues
TTITLE0=Train Track
TTITLE1=Rutherglen Road
TTITLE2=Too Late
TTITLE3=Bayswater Blues
TTITLE4=Overtake Me
TTITLE5=Perfect Home
TTITLE6=That's All There Is
TTITLE7=Picture
TTITLE8=If You Were Jesus
TTITLE9=I Just Wanna Make Love To You
EXTD=
EXTT0=
EXTT1=
EXTT2=
EXTT3=
EXTT4=
EXTT5=
EXTT6=
EXTT7=
EXTT8=
EXTT9=
PLAYORDER=
